<?xml version="1.0" encoding="UTF-8"?>
<svg id="_Слой_3" data-name="Слой 3" xmlns="http://www.w3.org/2000/svg" viewBox="0 0 480.84 276.75">
  <defs>
    <style>
      .cls-1 {
        fill: #fff;
        stroke-width: 0px;
      }
    </style>
  </defs>
  <path class="cls-1" d="m237.67,48.87c-19.81,73.14-38.41,153.65-58.26,226.2-.6,2.18-3.67,2.26-4.38.11-10.43-31.68-20.77-67.45-31.55-98.12-1.41-4.01-5.22-6.69-9.48-6.66l-101.41.66c-4.33.03-8.34-2.3-10.47-6.08-8.13-14.44-12.94-25.74-22.13-41.18l134.44-.7c7.36,0,9.61,4.61,11.87,11.61,9.6,29.65,19.55,58.85,29.24,88.23.54,1.65,2.89,1.59,3.34-.09,19.42-73,39.27-147.57,58.73-220.72.76-2.87,4.84-2.87,5.6,0,19.46,73.14,39.3,147.72,58.73,220.72.45,1.68,2.8,1.74,3.34.09,9.69-29.39,19.64-58.58,29.24-88.23,2.26-7,4.52-11.61,11.87-11.61l134.44.7c-9.18,15.44-13.99,26.74-22.13,41.18-2.13,3.78-6.13,6.11-10.47,6.08l-101.41-.66c-4.26-.03-8.07,2.64-9.48,6.66-10.78,30.67-21.12,66.44-31.55,98.12-.71,2.15-3.78,2.07-4.38-.11-19.85-72.56-38.45-153.06-58.26-226.2-.76-2.81-4.75-2.81-5.51,0Z"/>
  <path class="cls-1" d="m239.42,204.56h-15.7c-2.93,0-5.02-2.83-4.16-5.63l17.59-57.06c.69-2.23,3.84-2.23,4.53,0l17.59,57.06c.86,2.8-1.23,5.63-4.16,5.63h-15.7"/>
</svg>